<?xml version="1.0" standalone="no"?>
<!DOCTYPE svg PUBLIC "-//W3C//DTD SVG 20010904//EN"
 "http://www.w3.org/TR/2001/REC-SVG-20010904/DTD/svg10.dtd">
<svg version="1.0" xmlns="http://www.w3.org/2000/svg"
 width="300.000000pt" height="300.000000pt" viewBox="0 0 300.000000 300.000000"
 preserveAspectRatio="xMidYMid meet">
<metadata>
Created by potrace 1.11, written by Peter Selinger 2001-2013
</metadata>
<g transform="translate(0.000000,300.000000) scale(0.100000,-0.100000)"
fill="#000000" stroke="none">
<path d="M1311 2990 c-235 -30 -455 -113 -662 -251 -121 -81 -304 -263 -386
-384 -113 -168 -199 -370 -237 -557 -27 -133 -81 -118 412 -118 l427 0 23 58
c75 194 244 343 449 396 78 20 231 21 308 1 124 -32 264 -118 332 -203 l32
-39 -25 -49 c-35 -68 -31 -162 9 -223 44 -66 97 -95 181 -99 64 -3 76 0 123
27 64 38 102 98 110 173 14 135 -104 256 -238 247 -36 -3 -43 1 -90 54 -125
141 -291 230 -479 258 -322 47 -653 -124 -805 -414 l-30 -57 -297 0 c-181 0
-298 4 -298 9 0 6 12 47 26 93 109 346 355 635 681 801 220 112 408 153 668
144 136 -4 177 -9 276 -35 303 -80 572 -259 755 -501 116 -154 214 -378 254
-583 l11 -58 68 0 68 0 -9 58 c-32 205 -114 414 -235 596 -80 120 -235 283
-353 372 -165 123 -391 223 -599 265 -113 22 -361 32 -470 19z m930 -1189 c16
-16 29 -39 29 -51 0 -29 -26 -76 -45 -84 -92 -35 -167 69 -99 138 36 35 77 34
115 -3z"/>
<path d="M735 1486 c-16 -7 -45 -25 -63 -41 -152 -128 -58 -394 140 -395 39
-1 46 -5 77 -46 137 -181 406 -298 649 -281 277 19 515 170 641 407 l42 80
295 0 c342 0 313 15 264 -132 -137 -409 -469 -737 -877 -867 -138 -43 -257
-62 -408 -62 -378 -1 -705 136 -971 406 -184 187 -311 426 -363 683 l-18 87
-67 3 c-77 3 -75 8 -50 -116 41 -204 146 -437 270 -602 227 -301 551 -503 929
-577 136 -27 425 -24 562 5 258 55 507 180 691 346 278 252 435 543 495 919
l4 27 -432 0 -431 0 -17 -54 c-24 -74 -88 -170 -164 -243 -72 -69 -186 -132
-288 -158 -76 -19 -234 -19 -310 0 -120 31 -257 114 -330 203 -25 30 -26 34
-12 50 54 62 68 174 29 248 -24 47 -71 90 -119 111 -41 17 -129 16 -168 -1z
m141 -150 c83 -70 -24 -192 -110 -125 -21 16 -26 29 -26 64 0 35 5 48 26 64
35 28 76 27 110 -3z"/>
</g>
</svg>
